<svg xmlns="http://www.w3.org/2000/svg" width="32" height="32" viewBox="0 0 32 32" id="edit">
  <g id="Page-1" fill="none" fill-rule="evenodd" stroke="none" stroke-width="1">
    <g id="Asset-1" fill="#1D1D1B" fill-rule="nonzero" transform="translate(-4 -2)">
      <g id="Lager_84" transform="translate(4 2)">
        <path id="Shape" d="M24.336 4.805l2.859 2.859L15.3 20H12v-3.3L24.336 4.805zM24.362 0c-.53 0-1.037.21-1.41.584L8 15v9h9L31.416 9.05c.779-.78.779-2.043 0-2.822L25.773.585A1.99 1.99 0 0 0 24.362 0z"></path>
        <path id="Shape" d="M28 27a1 1 0 0 1-1 1H5a1 1 0 0 1-1-1V5a1 1 0 0 1 1-1h5a2 2 0 1 0 0-4H2a2 2 0 0 0-2 2v28a2 2 0 0 0 2 2h28a2 2 0 0 0 2-2v-8a2 2 0 1 0-4 0v5z"></path>
      </g>
    </g>
  </g>
</svg>
